<?xml version="1.0" encoding="UTF-8"?>
<svg xmlns="http://www.w3.org/2000/svg" xmlns:xlink="http://www.w3.org/1999/xlink" width="64pt" height="64pt" viewBox="0 0 64 64" version="1.1">
<g id="surface952">
<path style=" stroke:none;fill-rule:nonzero;fill:rgb(34.509804%,70.196078%,40.784314%);fill-opacity:1;" d="M 16.4375 10 L 16.125 11.625 L 15.125 17.375 L 14.6875 19.75 L 42.9375 19.75 L 42.3125 23.375 L 14.0625 23.375 L 13.75 25 L 12.75 30.75 L 12.3125 33.0625 L 40.5625 33.0625 L 39.125 41.1875 L 28.6875 46 L 20.5 41.5 L 20.9375 39.0625 L 21.375 36.75 L 11.625 36.75 L 11.375 38.375 L 10 46 L 9.6875 47.5 L 11.0625 48.1875 L 26.6875 55.8125 L 27.5 56.1875 L 28.3125 55.875 L 46.625 48.1875 L 47.625 47.8125 L 47.875 46.6875 L 54 12.375 L 54.4375 10 Z M 19.75 14 L 49.625 14 L 44.125 44.9375 L 27.5625 51.75 L 14.1875 45.25 L 15 40.75 L 16.5625 40.75 L 16.0625 43.625 L 17.3125 44.3125 L 27.625 50 L 28.5 50.5 L 29.4375 50.0625 L 41.75 44.375 L 42.6875 43.9375 L 42.875 42.875 L 44.9375 31.4375 L 45.375 29.0625 L 17.125 29.0625 L 17.375 27.375 L 45.6875 27.375 L 45.9375 25.6875 L 47.3125 18.0625 L 47.75 15.75 L 19.5 15.75 Z M 19.75 14 "/>
</g>
</svg>
